<svg width="142.998291" height="44.000000" viewBox="0 0 142.998 44" fill="none" xmlns="http://www.w3.org/2000/svg" xmlns:xlink="http://www.w3.org/1999/xlink">
	<desc>
			Created with Pixso.
	</desc>
	<defs/>
	<path id="Vector" d="M34.12 19.5C27.21 15.29 15.81 14.9 9.21 16.96C8.83 17.07 8.42 17.07 8.04 16.95C7.66 16.83 7.32 16.6 7.08 16.29C6.82 15.97 6.67 15.59 6.63 15.19C6.59 14.79 6.67 14.38 6.86 14.02C7.11 13.54 7.54 13.18 8.05 13.02C15.62 10.66 28.21 11.11 36.17 15.96C36.46 16.14 36.7 16.38 36.87 16.67C37.04 16.96 37.14 17.28 37.15 17.62C37.17 17.96 37.11 18.29 36.97 18.6C36.83 18.9 36.62 19.17 36.35 19.38C36.14 19.54 35.9 19.65 35.65 19.72C35.39 19.79 35.13 19.8 34.86 19.77C34.6 19.73 34.35 19.64 34.12 19.5ZM33.9 25.74C33.78 25.93 33.63 26.09 33.46 26.22C33.28 26.36 33.08 26.45 32.86 26.51C32.65 26.56 32.43 26.57 32.21 26.53C31.99 26.5 31.79 26.42 31.6 26.3C25.84 22.67 17.05 21.61 10.23 23.74C9.91 23.84 9.57 23.84 9.25 23.74C8.93 23.64 8.65 23.44 8.45 23.18C8.24 22.92 8.11 22.6 8.08 22.27C8.05 21.93 8.11 21.59 8.27 21.29C8.48 20.9 8.83 20.59 9.26 20.45C17.05 18.03 26.73 19.2 33.35 23.38C33.73 23.62 34 24.01 34.1 24.45C34.2 24.89 34.13 25.35 33.9 25.74ZM31.28 31.73C31.19 31.88 31.07 32.01 30.92 32.12C30.78 32.23 30.62 32.3 30.45 32.35C30.28 32.39 30.1 32.4 29.93 32.37C29.75 32.34 29.59 32.28 29.44 32.18C24.4 29.03 18.06 28.31 10.6 30.06C10.34 30.12 10.07 30.1 9.82 30.01C9.57 29.91 9.36 29.74 9.21 29.52C9.11 29.37 9.03 29.21 9 29.03C8.92 28.68 8.98 28.31 9.17 28C9.26 27.85 9.38 27.72 9.52 27.61C9.67 27.51 9.83 27.43 10 27.39C18.17 25.47 25.18 26.3 30.83 29.84C31.13 30.04 31.35 30.34 31.43 30.7C31.51 31.05 31.46 31.42 31.28 31.73ZM21.44 0C9.6 0 0 9.85 0 22C0 34.15 9.59 44 21.44 44C33.28 44 42.89 34.15 42.89 22C42.89 9.85 33.28 0 21.44 0ZM58.34 20.3C54.63 19.4 53.97 18.76 53.97 17.43C53.97 16.17 55.13 15.32 56.86 15.32C58.52 15.32 60.18 15.96 61.92 17.29C61.94 17.31 61.97 17.32 62 17.33C62.03 17.34 62.07 17.34 62.1 17.33C62.13 17.33 62.16 17.32 62.19 17.3C62.22 17.28 62.24 17.26 62.26 17.23L64.07 14.62C64.1 14.57 64.12 14.5 64.11 14.44C64.1 14.38 64.07 14.32 64.02 14.28C61.96 12.58 59.63 11.75 56.91 11.75C52.91 11.75 50.12 14.21 50.12 17.74C50.12 21.51 52.53 22.85 56.69 23.88C60.23 24.72 60.83 25.42 60.83 26.68C60.83 28.06 59.62 28.93 57.68 28.93C55.52 28.93 53.75 28.18 51.78 26.43C51.76 26.41 51.73 26.39 51.7 26.38C51.67 26.37 51.64 26.37 51.6 26.37C51.57 26.37 51.54 26.38 51.51 26.4C51.48 26.41 51.46 26.43 51.44 26.46L49.41 28.93C49.37 28.98 49.35 29.05 49.35 29.11C49.36 29.17 49.39 29.23 49.43 29.28C51.73 31.38 54.55 32.49 57.59 32.49C61.9 32.49 64.69 30.07 64.69 26.34C64.69 23.18 62.85 21.43 58.34 20.3ZM77.56 24.54C77.56 27.21 75.96 29.07 73.67 29.07C71.4 29.07 69.69 27.12 69.69 24.54C69.69 21.95 71.4 20.01 73.67 20.01C75.92 20.01 77.56 21.91 77.56 24.54ZM74.43 16.56C72.57 16.56 71.03 17.31 69.77 18.86L69.77 17.12C69.77 17.05 69.75 16.99 69.7 16.94C69.68 16.92 69.65 16.9 69.62 16.89C69.59 16.88 69.56 16.87 69.53 16.87L66.21 16.87C66.18 16.87 66.15 16.88 66.12 16.89C66.09 16.9 66.06 16.92 66.04 16.94C66 16.99 65.97 17.05 65.97 17.12L65.97 36.45C65.97 36.59 66.08 36.71 66.22 36.71L69.53 36.71C69.56 36.71 69.6 36.7 69.62 36.69C69.65 36.67 69.68 36.65 69.7 36.63C69.75 36.58 69.77 36.52 69.77 36.45L69.77 30.35C71.04 31.81 72.57 32.51 74.43 32.51C77.9 32.51 81.42 29.78 81.42 24.54C81.42 19.3 77.9 16.56 74.43 16.56ZM90.42 29.1C88.04 29.1 86.25 27.14 86.25 24.54C86.25 21.93 87.98 20.04 90.37 20.04C92.76 20.04 94.56 22 94.56 24.6C94.56 27.2 92.82 29.1 90.42 29.1ZM90.42 16.56C85.95 16.56 82.45 20.09 82.45 24.59C82.45 29.05 85.93 32.55 90.37 32.55C94.85 32.55 98.36 29.03 98.36 24.54C98.36 20.06 94.87 16.56 90.42 16.56ZM107.9 16.87L104.25 16.87L104.25 13.04C104.25 12.99 104.24 12.95 104.21 12.91C104.19 12.86 104.15 12.83 104.11 12.81C104.08 12.8 104.04 12.79 104.01 12.79L100.69 12.79C100.63 12.79 100.57 12.82 100.52 12.87C100.48 12.91 100.45 12.98 100.45 13.04L100.45 16.87L98.86 16.87C98.81 16.87 98.76 16.88 98.72 16.91C98.68 16.94 98.65 16.98 98.64 17.02C98.62 17.05 98.62 17.09 98.62 17.12L98.62 20.04C98.62 20.18 98.73 20.29 98.86 20.29L100.45 20.29L100.45 27.85C100.45 30.91 101.94 32.46 104.86 32.46C106.05 32.46 107.04 32.21 107.97 31.67C108.01 31.64 108.04 31.61 108.06 31.58C108.08 31.54 108.09 31.49 108.09 31.45L108.09 28.67C108.09 28.63 108.08 28.59 108.06 28.55C108.04 28.51 108.01 28.48 107.98 28.46C107.94 28.44 107.9 28.42 107.86 28.42C107.82 28.42 107.78 28.43 107.74 28.45C107.1 28.78 106.48 28.93 105.79 28.93C104.73 28.93 104.25 28.43 104.25 27.32L104.25 20.29L107.9 20.29C107.93 20.29 107.97 20.28 108 20.27C108.03 20.26 108.05 20.24 108.07 20.22C108.12 20.17 108.15 20.11 108.15 20.04L108.15 17.12C108.15 17.05 108.12 16.99 108.07 16.94C108.05 16.92 108.02 16.9 108 16.89C107.97 16.87 107.93 16.87 107.9 16.87L107.9 16.87ZM120.61 16.88L120.61 16.42C120.61 15.03 121.13 14.41 122.29 14.41C122.98 14.41 123.54 14.56 124.16 14.77C124.19 14.78 124.23 14.78 124.27 14.78C124.31 14.77 124.34 14.76 124.37 14.73C124.41 14.71 124.43 14.68 124.45 14.64C124.47 14.61 124.48 14.57 124.48 14.53L124.48 11.66C124.48 11.61 124.46 11.56 124.43 11.52C124.4 11.47 124.36 11.44 124.3 11.42C123.41 11.15 122.48 11.01 121.55 11.02C118.49 11.02 116.87 12.79 116.87 16.13L116.87 16.85L115.27 16.85C115.24 16.85 115.21 16.86 115.18 16.87C115.15 16.88 115.13 16.9 115.1 16.93C115.06 16.97 115.03 17.04 115.03 17.1L115.03 20.04C115.03 20.18 115.14 20.29 115.28 20.29L116.87 20.29L116.87 31.96C116.87 32.09 116.98 32.2 117.11 32.2L120.43 32.2C120.56 32.2 120.67 32.09 120.67 31.96L120.67 20.29L123.77 20.29L128.51 31.95C127.97 33.18 127.44 33.42 126.72 33.42C126.13 33.42 125.52 33.24 124.89 32.89C124.86 32.88 124.82 32.87 124.79 32.86C124.76 32.86 124.72 32.86 124.69 32.87C124.66 32.89 124.63 32.9 124.61 32.93C124.58 32.95 124.56 32.98 124.55 33.01L123.43 35.54C123.4 35.59 123.4 35.66 123.42 35.72C123.44 35.78 123.48 35.83 123.53 35.86C124.61 36.48 125.83 36.81 127.07 36.79C129.52 36.79 130.87 35.62 132.07 32.47L137.82 17.22C137.83 17.19 137.84 17.14 137.83 17.1C137.83 17.06 137.81 17.03 137.79 16.99C137.77 16.96 137.74 16.93 137.71 16.91C137.67 16.89 137.63 16.88 137.59 16.88L134.14 16.88C134.09 16.88 134.04 16.9 134 16.93C133.96 16.96 133.93 17 133.91 17.05L130.38 27.41L126.51 17.04C126.49 17 126.46 16.96 126.42 16.93C126.38 16.9 126.33 16.88 126.28 16.88L120.61 16.88ZM113.24 16.87L109.93 16.87C109.9 16.87 109.86 16.88 109.83 16.89C109.81 16.9 109.78 16.92 109.76 16.94C109.71 16.99 109.69 17.05 109.69 17.12L109.69 31.96C109.69 32.1 109.8 32.21 109.93 32.21L113.25 32.21C113.38 32.21 113.49 32.1 113.49 31.96L113.49 17.12C113.49 17.05 113.46 16.99 113.42 16.94C113.39 16.92 113.37 16.9 113.34 16.89C113.31 16.88 113.28 16.87 113.24 16.87ZM111.6 10.11C111.29 10.12 110.98 10.18 110.69 10.3C110.4 10.43 110.14 10.61 109.92 10.83C109.47 11.29 109.22 11.91 109.23 12.55C109.22 13.19 109.47 13.81 109.92 14.27C110.14 14.5 110.4 14.68 110.69 14.8C110.98 14.92 111.29 14.99 111.6 14.99C112.24 14.99 112.84 14.73 113.29 14.27C113.74 13.81 113.98 13.2 113.98 12.55C113.98 11.2 112.92 10.11 111.61 10.11L111.6 10.11ZM140.78 18.34L140.18 18.34L140.18 19.14L140.78 19.14C141.09 19.14 141.27 18.99 141.27 18.74C141.27 18.48 141.09 18.35 140.78 18.35L140.78 18.34ZM141.18 19.48L141.84 20.43L141.28 20.43L140.69 19.56L140.18 19.56L140.18 20.43L139.71 20.43L139.71 17.92L140.8 17.92C141.37 17.92 141.75 18.21 141.75 18.72C141.75 18.89 141.7 19.06 141.6 19.2C141.5 19.34 141.35 19.44 141.18 19.48ZM140.66 17.08C139.47 17.08 138.56 18.05 138.56 19.25C138.56 20.44 139.46 21.4 140.65 21.4C141.84 21.4 142.75 20.43 142.75 19.23C142.75 18.04 141.85 17.08 140.66 17.08L140.66 17.08ZM140.65 21.64C140.34 21.64 140.03 21.58 139.75 21.46C139.46 21.33 139.21 21.16 138.99 20.94C138.55 20.48 138.31 19.88 138.32 19.25C138.32 17.93 139.35 16.84 140.66 16.84C140.97 16.84 141.28 16.9 141.56 17.02C141.85 17.14 142.1 17.32 142.32 17.54C142.53 17.77 142.71 18.03 142.82 18.32C142.94 18.61 143 18.92 142.99 19.23C142.99 20.55 141.96 21.64 140.65 21.64L140.65 21.64Z" fill="#000000" fill-opacity="1.000000" fill-rule="nonzero"/>
</svg>
