<svg width="56.000000" height="56.000000" viewBox="0 0 56 56" fill="none" xmlns="http://www.w3.org/2000/svg" xmlns:xlink="http://www.w3.org/1999/xlink">
	<desc>
			Created with Pixso.
	</desc>
	<defs>
		<clipPath id="clip0_1348">
			<rect id="Frame" rx="-0.500000" width="23.000000" height="23.000000" transform="translate(16.500000 16.500000)" fill="white" fill-opacity="0"/>
		</clipPath>
	</defs>
	<rect id="Frame" rx="27.500000" width="55.000000" height="55.000000" transform="translate(0.500000 0.500000)" fill="#1ED760" fill-opacity="1.000000"/>
	<g clip-path="url(#clip0_1348)">
		<path id="Vector" d="M23.05 19.6L36.54 27.39C36.64 27.45 36.73 27.54 36.79 27.65C36.85 27.75 36.88 27.87 36.88 28C36.88 28.12 36.85 28.24 36.79 28.34C36.73 28.45 36.64 28.54 36.54 28.6L23.05 36.39C22.94 36.45 22.82 36.48 22.7 36.48C22.57 36.48 22.45 36.45 22.35 36.39C22.24 36.33 22.15 36.24 22.09 36.13C22.03 36.03 22 35.91 22 35.78L22 20.21C22 20.08 22.03 19.96 22.09 19.86C22.15 19.75 22.24 19.66 22.35 19.6C22.45 19.54 22.57 19.51 22.7 19.51C22.82 19.51 22.94 19.54 23.05 19.6Z" fill="#000000" fill-opacity="1.000000" fill-rule="nonzero"/>
	</g>
</svg>
